<svg xmlns="http://www.w3.org/2000/svg" width="22" height="20.362">
    <path data-name="Path 2298" d="M14.6 8H21a2 2 0 0 1 2 2v2.1a2 2 0 0 1-.15.762l-3.095 7.515a1 1 0 0 1-.925.623H2a1 1 0 0 1-1-1V10a1 1 0 0 1 1-1h3.482a1 1 0 0 0 .818-.423L11.752.85a.5.5 0 0 1 .632-.159L14.2 1.6a2.5 2.5 0 0 1 1.3 2.853zM7 10.588V19h11.16L21 12.1V10h-6.4a2 2 0 0 1-1.938-2.493l.9-3.548a.5.5 0 0 0-.261-.571l-.661-.33L7.933 9.73a3.016 3.016 0 0 1-.933.858zM5 11H3v8h2z" transform="translate(-1 -.638)" style="fill:#9f9f9f"/>
</svg>
